osimModel_states
version=1
nRows=41
nColumns=7
inDegrees=yes
endheader
time	q1	q2	q3	q1_u	q2_u	q3_u
     10.11294187	    -31.88515942	     63.77031882	      6.10348669	    -95.39869279	    190.79738556	    -95.39869276
     10.17039072	    -36.43565549	     72.87131095	      1.55299063	    -56.55717038	    113.11434073	    -56.55717035
     10.22783957	    -37.91553013	     75.83106022	      0.07311599	      6.82748610	    -13.65497221	      6.82748610
     10.28528841	    -35.70428029	     71.40856055	      2.28436583	     67.45189220	   -134.90378437	     67.45189217
     10.34273726	    -30.74433385	     61.48866767	      7.24431227	     97.72055551	   -195.44111098	     97.72055548
     10.38950448	    -26.42414448	     52.84828893	     11.56450164	     79.10127075	   -158.20254148	     79.10127073
     10.43466688	    -24.13102976	     48.26205950	     13.85761636	     16.52204819	    -33.04409638	     16.52204819
     10.46898653	    -24.57932857	     49.15865711	     13.40931755	    -41.64601751	     83.29203502	    -41.64601750
     10.50330617	    -26.78862194	     53.57724385	     11.20002418	    -82.98469577	    165.96939152	    -82.98469575
     10.53762582	    -29.96529638	     59.93059273	      8.02334974	    -97.79773759	    195.59547515	    -97.79773756
     10.59164728	    -34.88060493	     69.76120984	      3.10804119	    -76.77196328	    153.54392653	    -76.77196325
     10.64566875	    -37.68713827	     75.37427650	      0.30150786	    -23.80989882	     47.61979763	    -23.80989881
     10.69969021	    -37.29860448	     74.59720894	      0.69004164	     37.76646866	    -75.53293730	     37.76646864
     10.75371167	    -33.85630722	     67.71261441	      4.13233890	     85.45741388	   -170.91482773	     85.45741385
     10.81759216	    -27.82347608	     55.64695214	     10.16517003	     91.10621715	   -182.21243428	     91.10621713
     10.86542232	    -24.51488292	     49.02976582	     13.47376319	     39.10232338	    -78.20464675	     39.10232337
     10.91325247	    -24.57430143	     49.14860283	     13.41434469	    -41.36726617	     82.73453234	    -41.36726616
     10.95022081	    -26.99750075	     53.99500147	     10.99114537	    -84.92356557	    169.84713112	    -84.92356555
     10.98718915	    -30.46682920	     60.93365837	      7.52181692	    -97.84079920	    195.68159836	    -97.84079917
     11.04157421	    -35.28917222	     70.57834440	      2.69947390	    -72.42646139	    144.85292275	    -72.42646136
     11.09595926	    -37.80566582	     75.61133161	      0.18298030	    -17.15562073	     34.31124145	    -17.15562072
     11.15034431	    -37.04222126	     74.08444249	      0.94642486	     44.37612946	    -88.75225890	     44.37612944
     11.20472936	    -33.28148524	     66.56297046	      4.70716088	     89.17444154	   -178.34888304	     89.17444151
     11.25272710	    -28.69127650	     57.38255298	      9.29736962	     95.20376844	   -190.40753685	     95.20376841
     11.29567651	    -25.21649240	     50.43298478	     12.77215371	     59.61653351	   -119.23306702	     59.61653350
     11.33862592	    -24.08125387	     48.16250770	     13.90739225	     -9.76120464	     19.52240928	     -9.76120464
     11.37067869	    -25.23595695	     50.47191388	     12.75268916	    -59.99029559	    119.98059116	    -59.99029557
     11.40273146	    -27.70788273	     55.41576544	     10.28076338	    -90.34706967	    180.69413932	    -90.34706965
     11.44507426	    -31.77402655	     63.54805307	      6.21461957	    -95.70674275	    191.41348546	    -95.70674271
     11.50298582	    -36.39478752	     72.78957500	      1.59385860	    -57.22406402	    114.44812801	    -57.22406399
     11.56089738	    -37.91585886	     75.83171769	      0.07278726	      6.54950789	    -13.09901579	      6.54950789
     11.61880895	    -35.68837882	     71.37675762	      2.30026730	     67.63252860	   -135.26505717	     67.63252857
     11.67672051	    -30.67759495	     61.35518986	      7.31105117	     97.75392356	   -195.50784709	     97.75392353
     11.72315535	    -26.39764522	     52.79529041	     11.59100090	     78.75009271	   -157.50018541	     78.75009270
     11.76821686	    -24.12892437	     48.25784871	     13.85972175	     16.08344637	    -32.16689274	     16.08344637
     11.80247556	    -24.58919187	     49.17838371	     13.39945425	    -41.92844360	     83.85688719	    -41.92844359
     11.83673425	    -26.80069607	     53.60139211	     11.18795005	    -83.06900891	    166.13801780	    -83.06900889
     11.87099295	    -29.97251978	     59.94503952	      8.01612634	    -97.77809167	    195.55618331	    -97.77809164
     11.92502491	    -34.88604153	     69.77208303	      3.10260459	    -76.69447386	    153.38894769	    -76.69447383
     11.97905687	    -37.68799151	     75.37598299	      0.30065461	    -23.70268237	     47.40536473	    -23.70268236
     12.03308883	    -37.29356003	     74.58712002	      0.69508609	     37.86802739	    -75.73605477	     37.86802738
